<?xml version="1.0" encoding="UTF-8" standalone="no"?><svg xmlns="http://www.w3.org/2000/svg" xmlns:xlink="http://www.w3.org/1999/xlink" contentScriptType="application/ecmascript" contentStyleType="text/css" height="963px" preserveAspectRatio="none" style="width:761px;height:963px;" version="1.1" viewBox="0 0 761 963" width="761px" zoomAndPan="magnify"><defs><filter height="300%" id="f3iiy3t4oya4t" width="300%" x="-1" y="-1"><feGaussianBlur result="blurOut" stdDeviation="2.0"/><feColorMatrix in="blurOut" result="blurOut2" type="matrix" values="0 0 0 0 0 0 0 0 0 0 0 0 0 0 0 0 0 0 .4 0"/><feOffset dx="4.0" dy="4.0" in="blurOut2" result="blurOut3"/><feBlend in="SourceGraphic" in2="blurOut3" mode="normal"/></filter></defs><g><rect fill="#FEFECE" filter="url(#f3iiy3t4oya4t)" height="40" rx="12.5" ry="12.5" style="stroke: #A80036; stroke-width: 1.5;" width="163" x="225.5" y="122"/><text fill="#000000" font-family="sans-serif" font-size="14" lengthAdjust="spacingAndGlyphs" textLength="153" x="230.5" y="146.8467">NOT AUTHENTICATED</text><rect fill="#FEFECE" filter="url(#f3iiy3t4oya4t)" height="42.5938" rx="12.5" ry="12.5" style="stroke: #A80036; stroke-width: 1.5;" width="96" x="158" y="308"/><text fill="#000000" font-family="sans-serif" font-size="14" lengthAdjust="spacingAndGlyphs" textLength="44" x="184" y="325.9951">LOGIN</text><text fill="#000000" font-family="sans-serif" font-size="14" lengthAdjust="spacingAndGlyphs" textLength="86" x="163" y="342.292">REQUESTED</text><rect fill="#FEFECE" filter="url(#f3iiy3t4oya4t)" height="42.5938" rx="12.5" ry="12.5" style="stroke: #A80036; stroke-width: 1.5;" width="116" x="7" y="308"/><text fill="#000000" font-family="sans-serif" font-size="14" lengthAdjust="spacingAndGlyphs" textLength="106" x="12" y="325.9951">NEW ACCOUNT</text><text fill="#000000" font-family="sans-serif" font-size="14" lengthAdjust="spacingAndGlyphs" textLength="86" x="22" y="342.292">REQUESTED</text><rect fill="#FEFECE" filter="url(#f3iiy3t4oya4t)" height="40" rx="12.5" ry="12.5" style="stroke: #A80036; stroke-width: 1.5;" width="129" x="274.5" y="497"/><text fill="#000000" font-family="sans-serif" font-size="14" lengthAdjust="spacingAndGlyphs" textLength="119" x="279.5" y="521.8467">AUTHENTICATED</text><rect fill="#FEFECE" filter="url(#f3iiy3t4oya4t)" height="42.5938" rx="12.5" ry="12.5" style="stroke: #A80036; stroke-width: 1.5;" width="96" x="190" y="683"/><text fill="#000000" font-family="sans-serif" font-size="14" lengthAdjust="spacingAndGlyphs" textLength="81" x="197.5" y="700.9951">DOCUMENT</text><text fill="#000000" font-family="sans-serif" font-size="14" lengthAdjust="spacingAndGlyphs" textLength="86" x="195" y="717.292">REQUESTED</text><rect fill="#FEFECE" filter="url(#f3iiy3t4oya4t)" height="42.5938" rx="12.5" ry="12.5" style="stroke: #A80036; stroke-width: 1.5;" width="128" x="27" y="683"/><text fill="#000000" font-family="sans-serif" font-size="14" lengthAdjust="spacingAndGlyphs" textLength="118" x="32" y="700.9951">NEW DOCUMENT</text><text fill="#000000" font-family="sans-serif" font-size="14" lengthAdjust="spacingAndGlyphs" textLength="86" x="48" y="717.292">REQUESTED</text><rect fill="#FEFECE" filter="url(#f3iiy3t4oya4t)" height="42.5938" rx="12.5" ry="12.5" style="stroke: #A80036; stroke-width: 1.5;" width="91" x="317.5" y="902"/><text fill="#000000" font-family="sans-serif" font-size="14" lengthAdjust="spacingAndGlyphs" textLength="81" x="322.5" y="919.9951">DOCUMENT</text><text fill="#000000" font-family="sans-serif" font-size="14" lengthAdjust="spacingAndGlyphs" textLength="59" x="333.5" y="936.292">OPENED</text><rect fill="#000000" filter="url(#f3iiy3t4oya4t)" height="8" style="stroke: none; stroke-width: 1.0;" width="80" x="166" y="223"/><rect fill="#000000" filter="url(#f3iiy3t4oya4t)" height="8" style="stroke: none; stroke-width: 1.0;" width="80" x="212" y="412"/><rect fill="#000000" filter="url(#f3iiy3t4oya4t)" height="8" style="stroke: none; stroke-width: 1.0;" width="80" x="198" y="598"/><rect fill="#000000" filter="url(#f3iiy3t4oya4t)" height="8" style="stroke: none; stroke-width: 1.0;" width="80" x="239" y="787"/><ellipse cx="307" cy="33.5" fill="#000000" filter="url(#f3iiy3t4oya4t)" rx="10" ry="10" style="stroke: none; stroke-width: 1.0;"/><path d="M352.5,6 L352.5,61.3984 L749.5,61.3984 L749.5,16 L739.5,6 L352.5,6 " fill="#FBFB77" filter="url(#f3iiy3t4oya4t)" style="stroke: #A80036; stroke-width: 1.0;"/><path d="M739.5,6 L739.5,16 L749.5,16 L739.5,6 " fill="#FBFB77" style="stroke: #A80036; stroke-width: 1.0;"/><text fill="#000000" font-family="sans-serif" font-size="13" lengthAdjust="spacingAndGlyphs" textLength="376" x="358.5" y="23.0669">Additionally, an authenticated user can, in whatever state:</text><text fill="#000000" font-family="sans-serif" font-size="13" lengthAdjust="spacingAndGlyphs" textLength="265" x="358.5" y="38.1997">- Modifiy their profile ('profile' messages).</text><text fill="#000000" font-family="sans-serif" font-size="13" lengthAdjust="spacingAndGlyphs" textLength="223" x="358.5" y="53.3325">- Open or create other documents.</text><!--MD5=[45a3f3a6d4969990fc7b870ce4fa4b9d]
link *start to na--><path d="M307,43.58 C307,59.574 307,93.273 307,116.519 " fill="none" id="*start-&gt;na" style="stroke: #A80036; stroke-width: 1.0;"/><polygon fill="#A80036" points="307,121.602,311,112.602,307,116.602,303,112.602,307,121.602" style="stroke: #A80036; stroke-width: 1.0;"/><!--MD5=[63e1ac5a7ea2228c7f152557a1527bdb]
link na to fork_authentication--><path d="M283.829,162.042 C261.45,180.432 228.826,207.242 213.938,219.476 " fill="none" id="na-&gt;fork_authentication" style="stroke: #A80036; stroke-width: 1.0;"/><polygon fill="#A80036" points="209.919,222.78,219.412,220.1565,213.782,219.6056,214.3329,213.9756,209.919,222.78" style="stroke: #A80036; stroke-width: 1.0;"/><!--MD5=[a92de412e596e76d51c31aa2e7ac9f67]
link fork_authentication to lr--><path d="M206,231.344 C206,242.282 206,277.725 206,302.627 " fill="none" id="fork_authentication-&gt;lr" style="stroke: #A80036; stroke-width: 1.0;"/><polygon fill="#A80036" points="206,307.768,210,298.768,206,302.768,202,298.768,206,307.768" style="stroke: #A80036; stroke-width: 1.0;"/><text fill="#000000" font-family="sans-serif" font-size="13" lengthAdjust="spacingAndGlyphs" textLength="30" x="207" y="274.0669">login</text><!--MD5=[1dc46afa48c114d529591da2a2f4e76d]
link fork_authentication to nar--><path d="M200.277,231.029 C189.96,236.563 167.674,248.861 150,261 C130.382,274.474 109.433,291.082 93.2406,304.453 " fill="none" id="fork_authentication-&gt;nar" style="stroke: #A80036; stroke-width: 1.0;"/><polygon fill="#A80036" points="89.2301,307.778,98.7117,305.1134,93.0794,304.5869,93.6059,298.9546,89.2301,307.778" style="stroke: #A80036; stroke-width: 1.0;"/><text fill="#000000" font-family="sans-serif" font-size="13" lengthAdjust="spacingAndGlyphs" textLength="46" x="151" y="274.0669">sign up</text><!--MD5=[8a0f9d9be286c41ec841b7a5d52070aa]
link lr to join_authentication--><path d="M217.371,351.388 C227.241,369.519 240.99,394.775 247.813,407.309 " fill="none" id="lr-&gt;join_authentication" style="stroke: #A80036; stroke-width: 1.0;"/><polygon fill="#A80036" points="250.282,411.845,249.4931,402.0278,247.8918,407.4533,242.4663,405.852,250.282,411.845" style="stroke: #A80036; stroke-width: 1.0;"/><!--MD5=[33e05752f8ed21119f18e767fd523691]
link nar to join_authentication--><path d="M110.745,351.171 C153.749,370.603 215.175,398.36 240.455,409.783 " fill="none" id="nar-&gt;join_authentication" style="stroke: #A80036; stroke-width: 1.0;"/><polygon fill="#A80036" points="245.282,411.964,238.7267,404.6136,240.7253,409.9056,235.4333,411.9043,245.282,411.964" style="stroke: #A80036; stroke-width: 1.0;"/><!--MD5=[da7f37b0f594538e5029c86a98817efc]
link join_authentication to a--><path d="M254.693,420.179 C261.431,428.122 279.582,449.456 295,467 C302.394,475.414 310.573,484.564 317.853,492.655 " fill="none" id="join_authentication-&gt;a" style="stroke: #A80036; stroke-width: 1.0;"/><polygon fill="#A80036" points="321.347,496.534,318.2935,487.1704,317.9998,492.8197,312.3506,492.5259,321.347,496.534" style="stroke: #A80036; stroke-width: 1.0;"/><text fill="#000000" font-family="sans-serif" font-size="13" lengthAdjust="spacingAndGlyphs" textLength="72" x="296" y="463.0669">documents</text><!--MD5=[98ddcbdea59ac22614ebceae8225127b]
link join_authentication to na--><path d="M253.174,411.569 C256.396,402.052 265.504,374.473 271,351 C286.431,285.091 298.336,206.01 303.769,167.075 " fill="none" id="join_authentication-&gt;na" style="stroke: #A80036; stroke-width: 1.0;"/><polygon fill="#A80036" points="304.462,162.078,299.2655,170.4444,303.7763,167.0308,307.1899,171.5415,304.462,162.078" style="stroke: #A80036; stroke-width: 1.0;"/><text fill="#000000" font-family="sans-serif" font-size="13" lengthAdjust="spacingAndGlyphs" textLength="31" x="290" y="274.0669">error</text><!--MD5=[67cc2337d795b3784055e98db5371612]
link a to na--><path d="M357.647,496.944 C373.938,478.214 395,448.002 395,417 C395,226 395,226 395,226 C395,199.42 373.491,178.835 351.741,164.814 " fill="none" id="a-&gt;na" style="stroke: #A80036; stroke-width: 1.0;"/><polygon fill="#A80036" points="347.394,162.098,352.906,170.26,351.634,164.748,357.146,163.476,347.394,162.098" style="stroke: #A80036; stroke-width: 1.0;"/><text fill="#000000" font-family="sans-serif" font-size="13" lengthAdjust="spacingAndGlyphs" textLength="40" x="396" y="334.0669">logout</text><!--MD5=[ca97d9a72071ffffe36dd445b912e90a]
link a to fork_document--><path d="M315.829,537.042 C293.45,555.432 260.826,582.242 245.938,594.476 " fill="none" id="a-&gt;fork_document" style="stroke: #A80036; stroke-width: 1.0;"/><polygon fill="#A80036" points="241.919,597.78,251.412,595.1565,245.782,594.6056,246.3329,588.9756,241.919,597.78" style="stroke: #A80036; stroke-width: 1.0;"/><!--MD5=[8dc1a50bd96980e21c4f6b3fd0923000]
link fork_document to dr--><path d="M238,606.344 C238,617.282 238,652.725 238,677.627 " fill="none" id="fork_document-&gt;dr" style="stroke: #A80036; stroke-width: 1.0;"/><polygon fill="#A80036" points="238,682.768,242,673.768,238,677.768,234,673.768,238,682.768" style="stroke: #A80036; stroke-width: 1.0;"/><text fill="#000000" font-family="sans-serif" font-size="13" lengthAdjust="spacingAndGlyphs" textLength="32" x="239" y="649.0669">open</text><!--MD5=[c49c71149905aef79e6a1295083a4fd0]
link fork_document to ndr--><path d="M233.178,606.033 C224.08,611.775 203.785,624.675 187,636 C165.803,650.302 142.315,666.805 123.879,679.913 " fill="none" id="fork_document-&gt;ndr" style="stroke: #A80036; stroke-width: 1.0;"/><polygon fill="#A80036" points="119.785,682.826,129.4368,680.8658,123.8585,679.9266,124.7977,674.3482,119.785,682.826" style="stroke: #A80036; stroke-width: 1.0;"/><text fill="#000000" font-family="sans-serif" font-size="13" lengthAdjust="spacingAndGlyphs" textLength="41" x="188" y="649.0669">create</text><!--MD5=[40b6a8924f92b7eb1fd7507e11e5b35b]
link dr to join_document--><path d="M248.135,726.388 C256.933,744.519 269.186,769.775 275.268,782.309 " fill="none" id="dr-&gt;join_document" style="stroke: #A80036; stroke-width: 1.0;"/><polygon fill="#A80036" points="277.469,786.845,277.1387,777.0017,275.2862,782.3466,269.9413,780.4941,277.469,786.845" style="stroke: #A80036; stroke-width: 1.0;"/><!--MD5=[f37441fc5ddab51b03730933d5af3217]
link ndr to join_document--><path d="M136.99,726.171 C180.223,745.603 241.978,773.36 267.394,784.783 " fill="none" id="ndr-&gt;join_document" style="stroke: #A80036; stroke-width: 1.0;"/><polygon fill="#A80036" points="272.246,786.964,265.6775,779.6254,267.6856,784.9138,262.3972,786.922,272.246,786.964" style="stroke: #A80036; stroke-width: 1.0;"/><!--MD5=[d34e2c97c1ba5adf75a7f31cbc08a960]
link join_document to do--><path d="M279.441,795.004 C281.177,806.081 288.337,845.3695 306,872 C312.406,881.6578 321.107,890.6225 329.782,898.2365 " fill="none" id="join_document-&gt;do" style="stroke: #A80036; stroke-width: 1.0;"/><polygon fill="#A80036" points="334.028,901.8629,329.782,892.9763,330.2259,898.6157,324.5865,899.0596,334.028,901.8629" style="stroke: #A80036; stroke-width: 1.0;"/><text fill="#000000" font-family="sans-serif" font-size="13" lengthAdjust="spacingAndGlyphs" textLength="26" x="340.5" y="838.0669">text</text><text fill="#000000" font-family="sans-serif" font-size="13" lengthAdjust="spacingAndGlyphs" textLength="93" x="307" y="853.1997">+ sequence of</text><text fill="#000000" font-family="sans-serif" font-size="13" lengthAdjust="spacingAndGlyphs" textLength="40" x="333.5" y="868.3325">cursor</text><!--MD5=[338bdab100801a0669b42d1508ce69d8]
link join_document to a--><path d="M280.533,786.606 C284.731,777.183 296.534,749.821 303,726 C320.734,660.673 331.618,581.334 336.305,542.21 " fill="none" id="join_document-&gt;a" style="stroke: #A80036; stroke-width: 1.0;"/><polygon fill="#A80036" points="336.899,537.189,331.8699,545.6571,336.3119,542.1544,339.8145,546.5964,336.899,537.189" style="stroke: #A80036; stroke-width: 1.0;"/><text fill="#000000" font-family="sans-serif" font-size="13" lengthAdjust="spacingAndGlyphs" textLength="31" x="324" y="649.0669">error</text><!--MD5=[9eaac24ee9d9c8dc97de255208cbacac]
link do to a--><path d="M383.6,901.8411 C391.245,893.2154 399.407,882.7156 405,872 C422.063,839.31 427,828.875 427,792 C427,601 427,601 427,601 C427,574.42 405.491,553.835 383.741,539.814 " fill="none" id="do-&gt;a" style="stroke: #A80036; stroke-width: 1.0;"/><polygon fill="#A80036" points="379.394,537.098,384.906,545.26,383.634,539.748,389.146,538.476,379.394,537.098" style="stroke: #A80036; stroke-width: 1.0;"/><text fill="#000000" font-family="sans-serif" font-size="13" lengthAdjust="spacingAndGlyphs" textLength="33" x="428" y="709.0669">close</text><!--MD5=[9efda2c749fc1407487e2f513ab4f948]
link do to do--><path d="M408.516,909.7469 C427.45,908.7985 443.5,913.3828 443.5,923.5 C443.5,932.6687 430.318,937.2933 413.754,937.3739 " fill="none" id="do-&gt;do" style="stroke: #A80036; stroke-width: 1.0;"/><polygon fill="#A80036" points="408.516,937.2531,417.421,941.4603,413.5147,937.3688,417.6062,933.4624,408.516,937.2531" style="stroke: #A80036; stroke-width: 1.0;"/><text fill="#000000" font-family="sans-serif" font-size="13" lengthAdjust="spacingAndGlyphs" textLength="136" x="449.5" y="928.0669">insert / erase / cursor</text><!--MD5=[0f493f03fbc0cd9bafb919d27c867313]
@startuml
hide empty description

state "NOT AUTHENTICATED" as na
state "LOGIN\nREQUESTED" as lr
state "NEW ACCOUNT\nREQUESTED" as nar
state "AUTHENTICATED" as a
state "DOCUMENT\nREQUESTED" as dr
state "NEW DOCUMENT\nREQUESTED" as ndr
state "DOCUMENT\nOPENED" as do
state fork_authentication <<fork>>
state join_authentication <<join>>
state fork_document <<fork>>
state join_document <<join>>

[*] - -> na

na - -> fork_authentication
fork_authentication - -> lr : login
fork_authentication - -> nar : sign up
lr - -> join_authentication
nar - -> join_authentication
join_authentication - -> a : documents
join_authentication - -> na : error

a - -> na : logout

a - -> fork_document
fork_document - -> dr : open
fork_document - -> ndr : create
dr - -> join_document
ndr - -> join_document
join_document - -> do : text\n+ sequence of\ncursor
join_document - -> a : error
do - -> a : close

do - -> do : insert / erase / cursor
note as n
   Additionally, an authenticated user can, in whatever state:
   - Modifiy their profile ('profile' messages).
   - Open or create other documents.
end note
@enduml

PlantUML version 1.2020.16beta7(Unknown compile time)
(GPL source distribution)
Java Runtime: Java(TM) SE Runtime Environment
JVM: Java HotSpot(TM) 64-Bit Server VM
Default Encoding: UTF-8
Language: en
Country: US
--></g></svg>