<?xml version="1.0" encoding="UTF-8" standalone="no"?><svg xmlns="http://www.w3.org/2000/svg" xmlns:xlink="http://www.w3.org/1999/xlink" contentScriptType="application/ecmascript" contentStyleType="text/css" height="408px" preserveAspectRatio="none" style="width:900px;height:408px;" version="1.1" viewBox="0 0 900 408" width="900px" zoomAndPan="magnify"><defs><filter height="300%" id="ffvqpu7ar1d2c" width="300%" x="-1" y="-1"><feGaussianBlur result="blurOut" stdDeviation="2.0"/><feColorMatrix in="blurOut" result="blurOut2" type="matrix" values="0 0 0 0 0 0 0 0 0 0 0 0 0 0 0 0 0 0 .4 0"/><feOffset dx="4.0" dy="4.0" in="blurOut2" result="blurOut3"/><feBlend in="SourceGraphic" in2="blurOut3" mode="normal"/></filter></defs><g><rect fill="#FEFECE" filter="url(#ffvqpu7ar1d2c)" height="40" rx="12.5" ry="12.5" style="stroke: #A80036; stroke-width: 1.5;" width="163" x="7" y="228.5"/><text fill="#000000" font-family="sans-serif" font-size="14" lengthAdjust="spacingAndGlyphs" textLength="153" x="12" y="253.3467">NOT AUTHENTICATED</text><rect fill="#FEFECE" filter="url(#ffvqpu7ar1d2c)" height="42.5938" rx="12.5" ry="12.5" style="stroke: #A80036; stroke-width: 1.5;" width="96" x="151.5" y="347"/><text fill="#000000" font-family="sans-serif" font-size="14" lengthAdjust="spacingAndGlyphs" textLength="59" x="170" y="364.9951">PROFILE</text><text fill="#000000" font-family="sans-serif" font-size="14" lengthAdjust="spacingAndGlyphs" textLength="86" x="156.5" y="381.292">REQUESTED</text><rect fill="#FEFECE" filter="url(#ffvqpu7ar1d2c)" height="40" rx="12.5" ry="12.5" style="stroke: #A80036; stroke-width: 1.5;" width="129" x="400" y="108.5"/><text fill="#000000" font-family="sans-serif" font-size="14" lengthAdjust="spacingAndGlyphs" textLength="119" x="405" y="133.3467">AUTHENTICATED</text><rect fill="#FEFECE" filter="url(#ffvqpu7ar1d2c)" height="42.5938" rx="12.5" ry="12.5" style="stroke: #A80036; stroke-width: 1.5;" width="125" x="638" y="107"/><text fill="#000000" font-family="sans-serif" font-size="14" lengthAdjust="spacingAndGlyphs" textLength="115" x="643" y="124.9951">DOCUMENT LIST</text><text fill="#000000" font-family="sans-serif" font-size="14" lengthAdjust="spacingAndGlyphs" textLength="86" x="657.5" y="141.292">REQUESTED</text><rect fill="#FEFECE" filter="url(#ffvqpu7ar1d2c)" height="42.5938" rx="12.5" ry="12.5" style="stroke: #A80036; stroke-width: 1.5;" width="96" x="513.5" y="227"/><text fill="#000000" font-family="sans-serif" font-size="14" lengthAdjust="spacingAndGlyphs" textLength="81" x="521" y="244.9951">DOCUMENT</text><text fill="#000000" font-family="sans-serif" font-size="14" lengthAdjust="spacingAndGlyphs" textLength="86" x="518.5" y="261.292">REQUESTED</text><rect fill="#FEFECE" filter="url(#ffvqpu7ar1d2c)" height="42.5938" rx="12.5" ry="12.5" style="stroke: #A80036; stroke-width: 1.5;" width="91" x="442" y="347"/><text fill="#000000" font-family="sans-serif" font-size="14" lengthAdjust="spacingAndGlyphs" textLength="81" x="447" y="364.9951">DOCUMENT</text><text fill="#000000" font-family="sans-serif" font-size="14" lengthAdjust="spacingAndGlyphs" textLength="59" x="458" y="381.292">OPENED</text><rect fill="#FEFECE" filter="url(#ffvqpu7ar1d2c)" height="42.5938" rx="12.5" ry="12.5" style="stroke: #A80036; stroke-width: 1.5;" width="130" x="128.5" y="107"/><text fill="#000000" font-family="sans-serif" font-size="14" lengthAdjust="spacingAndGlyphs" textLength="120" x="133.5" y="124.9951">PROFILE UPDATE</text><text fill="#000000" font-family="sans-serif" font-size="14" lengthAdjust="spacingAndGlyphs" textLength="86" x="150.5" y="141.292">REQUESTED</text><ellipse cx="83.5" cy="128.5" fill="#000000" filter="url(#ffvqpu7ar1d2c)" rx="10" ry="10" style="stroke: none; stroke-width: 1.0;"/><path d="M83.5,6 L83.5,46.2656 A0,0 0 0 0 83.5,46.2656 L189.5,46.2656 L193.5,106.798 L197.5,46.2656 L303.5,46.2656 A0,0 0 0 0 303.5,46.2656 L303.5,16 L293.5,6 L83.5,6 A0,0 0 0 0 83.5,6 " fill="#FBFB77" filter="url(#ffvqpu7ar1d2c)" style="stroke: #A80036; stroke-width: 1.0;"/><path d="M293.5,6 L293.5,16 L303.5,16 L293.5,6 " fill="#FBFB77" style="stroke: #A80036; stroke-width: 1.0;"/><text fill="#000000" font-family="sans-serif" font-size="13" lengthAdjust="spacingAndGlyphs" textLength="199" x="89.5" y="23.0669">Can be done even while one or</text><text fill="#000000" font-family="sans-serif" font-size="13" lengthAdjust="spacingAndGlyphs" textLength="187" x="89.5" y="38.1997">more documents are opened</text><path d="M644.5,228.5 L644.5,244.5 L609.547,248.5 L644.5,252.5 L644.5,268.7656 A0,0 0 0 0 644.5,268.7656 L888.5,268.7656 A0,0 0 0 0 888.5,268.7656 L888.5,238.5 L878.5,228.5 L644.5,228.5 A0,0 0 0 0 644.5,228.5 " fill="#FBFB77" filter="url(#ffvqpu7ar1d2c)" style="stroke: #A80036; stroke-width: 1.0;"/><path d="M878.5,228.5 L878.5,238.5 L888.5,238.5 L878.5,228.5 " fill="#FBFB77" style="stroke: #A80036; stroke-width: 1.0;"/><text fill="#000000" font-family="sans-serif" font-size="13" lengthAdjust="spacingAndGlyphs" textLength="208" x="650.5" y="245.5669">More than one document can be</text><text fill="#000000" font-family="sans-serif" font-size="13" lengthAdjust="spacingAndGlyphs" textLength="223" x="650.5" y="260.6997">opened with the same mechanism</text><!--MD5=[45a3f3a6d4969990fc7b870ce4fa4b9d]
link *start to na--><path d="M83.8923,138.759 C84.6564,156.79 86.3659,197.134 87.4741,223.289 " fill="none" id="*start-&gt;na" style="stroke: #A80036; stroke-width: 1.0;"/><polygon fill="#A80036" points="87.6873,228.32,91.3031,219.1589,87.4759,223.3245,83.3103,219.4972,87.6873,228.32" style="stroke: #A80036; stroke-width: 1.0;"/><!--MD5=[492be2942163d2ff24ef3706db6d3f8c]
link na to pr--><path d="M75.5258,268.671 C67.5814,283.02 60.6555,302.5742 70.5,317 C87.4742,341.8734 118.703,354.4962 146.181,360.9017 " fill="none" id="na-&gt;pr" style="stroke: #A80036; stroke-width: 1.0;"/><polygon fill="#A80036" points="151.265,362.027,143.3432,356.1751,146.3833,360.9456,141.6129,363.9858,151.265,362.027" style="stroke: #A80036; stroke-width: 1.0;"/><text fill="#000000" font-family="sans-serif" font-size="13" lengthAdjust="spacingAndGlyphs" textLength="84" x="71.5" y="313.0669">login / signup</text><!--MD5=[b479c39c7746f1063386ee8098a0ba63]
link pr to na--><path d="M190.47,346.7832 C183.612,332.5808 173.206,313.873 160.5,300 C150.673,289.27 138.185,279.531 126.379,271.532 " fill="none" id="pr-&gt;na" style="stroke: #A80036; stroke-width: 1.0;"/><polygon fill="#A80036" points="122.066,268.665,127.3462,276.9788,126.2298,271.4332,131.7754,270.3168,122.066,268.665" style="stroke: #A80036; stroke-width: 1.0;"/><text fill="#000000" font-family="sans-serif" font-size="13" lengthAdjust="spacingAndGlyphs" textLength="31" x="175.5" y="313.0669">error</text><!--MD5=[713f9292c6f080fcc1b49fc2b4d1b799]
link pr to a--><path d="M216.961,346.875 C241.444,318.4832 287.982,266.402 332.5,227 C364.294,198.86 403.804,170.442 431.272,151.605 " fill="none" id="pr-&gt;a" style="stroke: #A80036; stroke-width: 1.0;"/><polygon fill="#A80036" points="435.574,148.666,425.8865,150.4415,431.4459,151.4871,430.4003,157.0465,435.574,148.666" style="stroke: #A80036; stroke-width: 1.0;"/><text fill="#000000" font-family="sans-serif" font-size="13" lengthAdjust="spacingAndGlyphs" textLength="116" x="333.5" y="253.0669">profile / signup_ok</text><!--MD5=[67cc2337d795b3784055e98db5371612]
link a to na--><path d="M399.945,133.632 C342.4,139.075 256.806,151.562 187.5,180 C160.662,191.012 133.686,210.057 114.686,225.115 " fill="none" id="a-&gt;na" style="stroke: #A80036; stroke-width: 1.0;"/><polygon fill="#A80036" points="110.516,228.458,120.0403,225.9503,114.4174,225.3309,115.0368,219.708,110.516,228.458" style="stroke: #A80036; stroke-width: 1.0;"/><text fill="#000000" font-family="sans-serif" font-size="13" lengthAdjust="spacingAndGlyphs" textLength="40" x="188.5" y="193.0669">logout</text><!--MD5=[eeef09f02d5161a7f583792fab9ec09c]
reverse link pur to a--><path d="M263.578,143.888 C290.611,148.13 321.819,150.97 350.25,148.5 C366.399,147.097 383.689,144.599 399.806,141.833 " fill="none" id="pur&lt;-a" style="stroke: #A80036; stroke-width: 1.0;"/><polygon fill="#A80036" points="258.58,143.08,266.8274,148.4634,263.5161,143.877,268.1025,140.5657,258.58,143.08" style="stroke: #A80036; stroke-width: 1.0;"/><text fill="#000000" font-family="sans-serif" font-size="13" lengthAdjust="spacingAndGlyphs" textLength="40" x="309.25" y="144.5669">profile</text><!--MD5=[d86bc1ab8263415e202c59f08e506a9b]
link pur to a--><path d="M258.756,128.5 C299.843,128.5 352.839,128.5 394.755,128.5 " fill="none" id="pur-&gt;a" style="stroke: #A80036; stroke-width: 1.0;"/><polygon fill="#A80036" points="399.81,128.5,390.81,124.5,394.81,128.5,390.81,132.5,399.81,128.5" style="stroke: #A80036; stroke-width: 1.0;"/><text fill="#000000" font-family="sans-serif" font-size="13" lengthAdjust="spacingAndGlyphs" textLength="105" x="276.75" y="121.5669">profile_ok / error</text><!--MD5=[87012733674b4e3186640a3fe0687e73]
link a to dlr--><path d="M529.3,128.5 C561.423,128.5 600.198,128.5 632.717,128.5 " fill="none" id="a-&gt;dlr" style="stroke: #A80036; stroke-width: 1.0;"/><polygon fill="#A80036" points="637.881,128.5,628.881,124.5,632.881,128.5,628.881,132.5,637.881,128.5" style="stroke: #A80036; stroke-width: 1.0;"/><text fill="#000000" font-family="sans-serif" font-size="13" lengthAdjust="spacingAndGlyphs" textLength="72" x="547.5" y="121.5669">documents</text><!--MD5=[cd8d05b0922a1b2ad8e29d6d3b43ebaa]
reverse link a to dlr--><path d="M534.064,146.667 C538.254,147.387 542.422,148.01 546.5,148.5 C579.154,152.425 587.858,152.518 620.5,148.5 C626.184,147.8 632.044,146.831 637.888,145.693 " fill="none" id="a&lt;-dlr" style="stroke: #A80036; stroke-width: 1.0;"/><polygon fill="#A80036" points="529.14,145.779,537.2876,151.3122,534.0607,146.666,538.7069,143.4391,529.14,145.779" style="stroke: #A80036; stroke-width: 1.0;"/><text fill="#000000" font-family="sans-serif" font-size="13" lengthAdjust="spacingAndGlyphs" textLength="72" x="547.5" y="144.5669">documents</text><!--MD5=[a6dc4f0ab1f8ad32c0815aa8e43f9ba6]
link a to dr--><path d="M499.665,148.626 C512.327,156.909 525.853,167.573 535.5,180 C545.033,192.281 551.426,208.469 555.487,221.913 " fill="none" id="a-&gt;dr" style="stroke: #A80036; stroke-width: 1.0;"/><polygon fill="#A80036" points="556.879,226.73,558.222,216.9731,555.4903,221.9267,550.5367,219.195,556.879,226.73" style="stroke: #A80036; stroke-width: 1.0;"/><text fill="#000000" font-family="sans-serif" font-size="13" lengthAdjust="spacingAndGlyphs" textLength="85" x="546.5" y="193.0669">open / create</text><!--MD5=[d9141eae0c991c2339df81d90021945a]
link dr to a--><path d="M527.28,226.8 C515.769,218.603 503.563,208.403 494.5,197 C484.267,184.125 476.757,167.209 471.811,153.532 " fill="none" id="dr-&gt;a" style="stroke: #A80036; stroke-width: 1.0;"/><polygon fill="#A80036" points="470.104,148.654,469.3007,158.47,471.7552,153.3735,476.8518,155.8281,470.104,148.654" style="stroke: #A80036; stroke-width: 1.0;"/><text fill="#000000" font-family="sans-serif" font-size="13" lengthAdjust="spacingAndGlyphs" textLength="31" x="495.5" y="193.0669">error</text><!--MD5=[713b8b6252a4cd6497bfa58edba64dea]
link dr to do--><path d="M548.61,270.054 C536.007,290.1506 516.794,320.7879 503.283,342.3331 " fill="none" id="dr-&gt;do" style="stroke: #A80036; stroke-width: 1.0;"/><polygon fill="#A80036" points="500.49,346.7856,508.6606,341.2864,503.1466,342.5498,501.8833,337.0358,500.49,346.7856" style="stroke: #A80036; stroke-width: 1.0;"/><text fill="#000000" font-family="sans-serif" font-size="13" lengthAdjust="spacingAndGlyphs" textLength="65" x="529.5" y="313.0669">document</text><!--MD5=[9eaac24ee9d9c8dc97de255208cbacac]
link do to a--><path d="M480.323,346.8951 C473.929,327.3752 465.051,297.0973 461.5,270 C456.188,229.463 459.115,181.795 461.772,153.701 " fill="none" id="do-&gt;a" style="stroke: #A80036; stroke-width: 1.0;"/><polygon fill="#A80036" points="462.263,148.689,457.4051,157.2564,461.7758,153.6652,465.367,158.0359,462.263,148.689" style="stroke: #A80036; stroke-width: 1.0;"/><text fill="#000000" font-family="sans-serif" font-size="13" lengthAdjust="spacingAndGlyphs" textLength="33" x="462.5" y="253.0669">close</text><!--MD5=[9efda2c749fc1407487e2f513ab4f948]
link do to do--><path d="M533.016,357.3489 C551.95,356.5798 568,360.2969 568,368.5 C568,375.9341 554.818,379.6838 538.254,379.7491 " fill="none" id="do-&gt;do" style="stroke: #A80036; stroke-width: 1.0;"/><polygon fill="#A80036" points="533.016,379.6511,541.9402,383.8176,538.0151,379.744,542.0887,375.8189,533.016,379.6511" style="stroke: #A80036; stroke-width: 1.0;"/><text fill="#000000" font-family="sans-serif" font-size="13" lengthAdjust="spacingAndGlyphs" textLength="225" x="574" y="373.0669">insert / erase / cursor / open / close</text><!--MD5=[54916dca036578ca57ce8bf43c15b6d7]
@startuml
hide empty description

state "NOT AUTHENTICATED" as na
state "PROFILE\nREQUESTED" as pr
state "AUTHENTICATED" as a
state "DOCUMENT LIST\nREQUESTED" as dlr
state "DOCUMENT\nREQUESTED" as dr
state "DOCUMENT\nOPENED" as do
state "PROFILE UPDATE\nREQUESTED" as pur

[*] - -> na

na - -> pr : login / signup
pr - -> a : profile / signup_ok
pr - -> na : error
a - -> na : logout

a -left-> pur : profile
pur -right-> a : profile_ok / error

a -right-> dlr : documents
dlr -left-> a : documents

a - -> dr : open / create
dr - -> do : document
dr - -> a : error
do - -> a : close
do - -> do : insert / erase / cursor / open / close 

note top of pur : Can be done even while one or\nmore documents are opened
note right of dr : More than one document can be\nopened with the same mechanism
@enduml

PlantUML version 1.2020.16beta7(Unknown compile time)
(GPL source distribution)
Java Runtime: Java(TM) SE Runtime Environment
JVM: Java HotSpot(TM) 64-Bit Server VM
Default Encoding: UTF-8
Language: en
Country: US
--></g></svg>