<?xml version="1.0" encoding="UTF-8" standalone="no"?><svg xmlns="http://www.w3.org/2000/svg" xmlns:xlink="http://www.w3.org/1999/xlink" contentScriptType="application/ecmascript" contentStyleType="text/css" height="590px" preserveAspectRatio="none" style="width:631px;height:590px;" version="1.1" viewBox="0 0 631 590" width="631px" zoomAndPan="magnify"><defs><filter height="300%" id="f1c4cc6eqje9jh" width="300%" x="-1" y="-1"><feGaussianBlur result="blurOut" stdDeviation="2.0"/><feColorMatrix in="blurOut" result="blurOut2" type="matrix" values="0 0 0 0 0 0 0 0 0 0 0 0 0 0 0 0 0 0 .4 0"/><feOffset dx="4.0" dy="4.0" in="blurOut2" result="blurOut3"/><feBlend in="SourceGraphic" in2="blurOut3" mode="normal"/></filter></defs><g><rect fill="#FEFECE" filter="url(#f1c4cc6eqje9jh)" height="40" rx="12.5" ry="12.5" style="stroke: #A80036; stroke-width: 1.5;" width="89" x="257.5" y="154"/><text fill="#000000" font-family="sans-serif" font-size="14" lengthAdjust="spacingAndGlyphs" textLength="79" x="262.5" y="178.8467">LOGGED IN</text><rect fill="#FEFECE" filter="url(#f1c4cc6eqje9jh)" height="42.5938" rx="12.5" ry="12.5" style="stroke: #A80036; stroke-width: 1.5;" width="96" x="7" y="340"/><text fill="#000000" font-family="sans-serif" font-size="14" lengthAdjust="spacingAndGlyphs" textLength="81" x="14.5" y="357.9951">DOCUMENT</text><text fill="#000000" font-family="sans-serif" font-size="14" lengthAdjust="spacingAndGlyphs" textLength="86" x="12" y="374.292">REQUESTED</text><rect fill="#FEFECE" filter="url(#f1c4cc6eqje9jh)" height="42.5938" rx="12.5" ry="12.5" style="stroke: #A80036; stroke-width: 1.5;" width="128" x="138" y="340"/><text fill="#000000" font-family="sans-serif" font-size="14" lengthAdjust="spacingAndGlyphs" textLength="118" x="143" y="357.9951">NEW DOCUMENT</text><text fill="#000000" font-family="sans-serif" font-size="14" lengthAdjust="spacingAndGlyphs" textLength="86" x="159" y="374.292">REQUESTED</text><rect fill="#FEFECE" filter="url(#f1c4cc6eqje9jh)" height="42.5938" rx="12.5" ry="12.5" style="stroke: #A80036; stroke-width: 1.5;" width="91" x="246.5" y="529"/><text fill="#000000" font-family="sans-serif" font-size="14" lengthAdjust="spacingAndGlyphs" textLength="81" x="251.5" y="546.9951">DOCUMENT</text><text fill="#000000" font-family="sans-serif" font-size="14" lengthAdjust="spacingAndGlyphs" textLength="59" x="262.5" y="563.292">OPENED</text><rect fill="#000000" filter="url(#f1c4cc6eqje9jh)" height="8" style="stroke: none; stroke-width: 1.0;" width="80" x="162" y="255"/><rect fill="#000000" filter="url(#f1c4cc6eqje9jh)" height="8" style="stroke: none; stroke-width: 1.0;" width="80" x="162" y="444"/><ellipse cx="302" cy="41.5" fill="#000000" filter="url(#f1c4cc6eqje9jh)" rx="10" ry="10" style="stroke: none; stroke-width: 1.0;"/><ellipse cx="433" cy="174" fill="none" filter="url(#f1c4cc6eqje9jh)" rx="10" ry="10" style="stroke: #000000; stroke-width: 1.0;"/><ellipse cx="433.5" cy="174.5" fill="#000000" rx="6" ry="6" style="stroke: none; stroke-width: 1.0;"/><path d="M347,6 L347,76.5313 L619,76.5313 L619,16 L609,6 L347,6 " fill="#FBFB77" filter="url(#f1c4cc6eqje9jh)" style="stroke: #A80036; stroke-width: 1.0;"/><path d="M609,6 L609,16 L619,16 L609,6 " fill="#FBFB77" style="stroke: #A80036; stroke-width: 1.0;"/><text fill="#000000" font-family="sans-serif" font-size="13" lengthAdjust="spacingAndGlyphs" textLength="247" x="353" y="23.0669">An online user can modifiy their profile</text><text fill="#000000" font-family="sans-serif" font-size="13" lengthAdjust="spacingAndGlyphs" textLength="235" x="353" y="38.1997">('profile' messages) and open/create</text><text fill="#000000" font-family="sans-serif" font-size="13" lengthAdjust="spacingAndGlyphs" textLength="234" x="353" y="53.3325">other documents (more than one) in</text><text fill="#000000" font-family="sans-serif" font-size="13" lengthAdjust="spacingAndGlyphs" textLength="102" x="353" y="68.4653">whatever state.</text><!--MD5=[49114f5c426c5dbd8f95c61038b46d78]
link *start to li--><path d="M302,51.885 C302,71.912 302,119.383 302,148.592 " fill="none" id="*start-&gt;li" style="stroke: #A80036; stroke-width: 1.0;"/><polygon fill="#A80036" points="302,153.823,306,144.823,302,148.823,298,144.823,302,153.823" style="stroke: #A80036; stroke-width: 1.0;"/><text fill="#000000" font-family="sans-serif" font-size="13" lengthAdjust="spacingAndGlyphs" textLength="88" x="303" y="120.0669">login / sign up</text><!--MD5=[1ab2a65999670dca063e21611b3b2454]
link li to *end--><path d="M346.716,174 C371.222,174 400.059,174 417.414,174 " fill="none" id="li-&gt;*end" style="stroke: #A80036; stroke-width: 1.0;"/><polygon fill="#A80036" points="422.836,174,413.836,170,417.836,174,413.836,178,422.836,174" style="stroke: #A80036; stroke-width: 1.0;"/><text fill="#000000" font-family="sans-serif" font-size="13" lengthAdjust="spacingAndGlyphs" textLength="40" x="364.75" y="167.0669">logout</text><!--MD5=[52610fb64d7eef11047447ee0614c4d6]
link li to fork--><path d="M278.807,194.25 C256.636,212.652 224.483,239.339 209.818,251.511 " fill="none" id="li-&gt;fork" style="stroke: #A80036; stroke-width: 1.0;"/><polygon fill="#A80036" points="205.859,254.797,215.3391,252.1273,209.7065,251.6038,210.23,245.9712,205.859,254.797" style="stroke: #A80036; stroke-width: 1.0;"/><!--MD5=[473d7d4a0a518f22cb27803e4007b9d7]
link fork to dr--><path d="M197.439,263.118 C181.373,274.102 126.393,311.69 89.6292,336.825 " fill="none" id="fork-&gt;dr" style="stroke: #A80036; stroke-width: 1.0;"/><polygon fill="#A80036" points="85.2399,339.826,94.9269,338.048,89.3673,337.0038,90.4115,331.4442,85.2399,339.826" style="stroke: #A80036; stroke-width: 1.0;"/><text fill="#000000" font-family="sans-serif" font-size="13" lengthAdjust="spacingAndGlyphs" textLength="32" x="152" y="306.0669">open</text><!--MD5=[256e0c8ecb92626f348ab92b4237f3c4]
link fork to ndr--><path d="M202,263.344 C202,274.282 202,309.725 202,334.627 " fill="none" id="fork-&gt;ndr" style="stroke: #A80036; stroke-width: 1.0;"/><polygon fill="#A80036" points="202,339.768,206,330.768,202,334.768,198,330.768,202,339.768" style="stroke: #A80036; stroke-width: 1.0;"/><text fill="#000000" font-family="sans-serif" font-size="13" lengthAdjust="spacingAndGlyphs" textLength="41" x="203" y="306.0669">create</text><!--MD5=[77289a1cf6c7dbb9efc5f9172afe47cc]
link dr to join--><path d="M90.9602,383.171 C124.325,402.35 171.797,429.638 192.134,441.329 " fill="none" id="dr-&gt;join" style="stroke: #A80036; stroke-width: 1.0;"/><polygon fill="#A80036" points="196.481,443.827,190.6705,435.8748,192.1458,441.3359,186.6847,442.8111,196.481,443.827" style="stroke: #A80036; stroke-width: 1.0;"/><!--MD5=[bb411e45eb5148589231c44dff4bfb65]
link ndr to join--><path d="M202,383.388 C202,401.196 202,425.875 202,438.626 " fill="none" id="ndr-&gt;join" style="stroke: #A80036; stroke-width: 1.0;"/><polygon fill="#A80036" points="202,443.845,206,434.845,202,438.845,198,434.845,202,443.845" style="stroke: #A80036; stroke-width: 1.0;"/><!--MD5=[509b2abcd76d6f954f116efe8648544a]
link join to do--><path d="M204.994,452.344 C214.954,463.465 247.598,499.9178 269.941,524.8678 " fill="none" id="join-&gt;do" style="stroke: #A80036; stroke-width: 1.0;"/><polygon fill="#A80036" points="273.434,528.7678,270.4092,519.3949,270.0982,525.0432,264.4499,524.7322,273.434,528.7678" style="stroke: #A80036; stroke-width: 1.0;"/><text fill="#000000" font-family="sans-serif" font-size="13" lengthAdjust="spacingAndGlyphs" textLength="15" x="246" y="495.0669">ok</text><!--MD5=[a36d63e6bd38c7ffbeec9a446aa50b6f]
link do to li--><path d="M307.142,528.6996 C319.87,509.1377 336,478.5226 336,449 C336,258 336,258 336,258 C336,236.792 326.377,214.658 317.37,198.585 " fill="none" id="do-&gt;li" style="stroke: #A80036; stroke-width: 1.0;"/><polygon fill="#A80036" points="314.854,194.219,315.8814,204.0141,317.3502,198.5513,322.813,200.0202,314.854,194.219" style="stroke: #A80036; stroke-width: 1.0;"/><text fill="#000000" font-family="sans-serif" font-size="13" lengthAdjust="spacingAndGlyphs" textLength="33" x="337" y="366.0669">close</text><!--MD5=[9efda2c749fc1407487e2f513ab4f948]
link do to do--><path d="M337.516,539.3489 C356.45,538.5798 372.5,542.2969 372.5,550.5 C372.5,557.9341 359.318,561.6838 342.754,561.7491 " fill="none" id="do-&gt;do" style="stroke: #A80036; stroke-width: 1.0;"/><polygon fill="#A80036" points="337.516,561.6511,346.4402,565.8176,342.5151,561.744,346.5887,557.8189,337.516,561.6511" style="stroke: #A80036; stroke-width: 1.0;"/><text fill="#000000" font-family="sans-serif" font-size="13" lengthAdjust="spacingAndGlyphs" textLength="126" x="378.5" y="555.0669">insert / erase / seek</text><!--MD5=[2fe7eac808578960d7de8b571ca25159]
@startuml
hide empty description

state "LOGGED IN" as li
state "DOCUMENT\nREQUESTED" as dr
state "NEW DOCUMENT\nREQUESTED" as ndr
state "DOCUMENT\nOPENED" as do
state fork <<fork>>
state join <<join>>

[*] - -> li : login / sign up
li -> [*] : logout

li - -> fork
fork - -> dr : open
fork - -> ndr : create
dr - -> join
ndr - -> join
join - -> do : ok
do - -> li : close

do - -> do : insert / erase / seek

note as n
   An online user can modifiy their profile 
   ('profile' messages) and open/create
   other documents (more than one) in 
   whatever state.
end note
@enduml

PlantUML version 1.2020.16beta7(Unknown compile time)
(GPL source distribution)
Java Runtime: Java(TM) SE Runtime Environment
JVM: Java HotSpot(TM) 64-Bit Server VM
Default Encoding: UTF-8
Language: en
Country: US
--></g></svg>