<?xml version="1.0" encoding="UTF-8" standalone="no"?><svg xmlns="http://www.w3.org/2000/svg" xmlns:xlink="http://www.w3.org/1999/xlink" contentScriptType="application/ecmascript" contentStyleType="text/css" height="575px" preserveAspectRatio="none" style="width:1072px;height:575px;" version="1.1" viewBox="0 0 1072 575" width="1072px" zoomAndPan="magnify"><defs><filter height="300%" id="f1rz334nkwwqtz" width="300%" x="-1" y="-1"><feGaussianBlur result="blurOut" stdDeviation="2.0"/><feColorMatrix in="blurOut" result="blurOut2" type="matrix" values="0 0 0 0 0 0 0 0 0 0 0 0 0 0 0 0 0 0 .4 0"/><feOffset dx="4.0" dy="4.0" in="blurOut2" result="blurOut3"/><feBlend in="SourceGraphic" in2="blurOut3" mode="normal"/></filter></defs><g><rect fill="#FEFECE" filter="url(#f1rz334nkwwqtz)" height="40" rx="12.5" ry="12.5" style="stroke: #A80036; stroke-width: 1.5;" width="163" x="248.5" y="125.5"/><text fill="#000000" font-family="sans-serif" font-size="14" lengthAdjust="spacingAndGlyphs" textLength="153" x="253.5" y="150.3467">NOT AUTHENTICATED</text><rect fill="#FEFECE" filter="url(#f1rz334nkwwqtz)" height="42.5938" rx="12.5" ry="12.5" style="stroke: #A80036; stroke-width: 1.5;" width="96" x="209" y="364"/><text fill="#000000" font-family="sans-serif" font-size="14" lengthAdjust="spacingAndGlyphs" textLength="44" x="235" y="381.9951">LOGIN</text><text fill="#000000" font-family="sans-serif" font-size="14" lengthAdjust="spacingAndGlyphs" textLength="86" x="214" y="398.292">REQUESTED</text><rect fill="#FEFECE" filter="url(#f1rz334nkwwqtz)" height="42.5938" rx="12.5" ry="12.5" style="stroke: #A80036; stroke-width: 1.5;" width="116" x="340" y="364"/><text fill="#000000" font-family="sans-serif" font-size="14" lengthAdjust="spacingAndGlyphs" textLength="106" x="345" y="381.9951">NEW ACCOUNT</text><text fill="#000000" font-family="sans-serif" font-size="14" lengthAdjust="spacingAndGlyphs" textLength="86" x="355" y="398.292">REQUESTED</text><rect fill="#FEFECE" filter="url(#f1rz334nkwwqtz)" height="40" rx="12.5" ry="12.5" style="stroke: #A80036; stroke-width: 1.5;" width="129" x="444.5" y="7"/><text fill="#000000" font-family="sans-serif" font-size="14" lengthAdjust="spacingAndGlyphs" textLength="119" x="449.5" y="31.8467">AUTHENTICATED</text><rect fill="#FEFECE" filter="url(#f1rz334nkwwqtz)" height="42.5938" rx="12.5" ry="12.5" style="stroke: #A80036; stroke-width: 1.5;" width="96" x="794" y="244"/><text fill="#000000" font-family="sans-serif" font-size="14" lengthAdjust="spacingAndGlyphs" textLength="81" x="801.5" y="261.9951">DOCUMENT</text><text fill="#000000" font-family="sans-serif" font-size="14" lengthAdjust="spacingAndGlyphs" textLength="86" x="799" y="278.292">REQUESTED</text><rect fill="#FEFECE" filter="url(#f1rz334nkwwqtz)" height="42.5938" rx="12.5" ry="12.5" style="stroke: #A80036; stroke-width: 1.5;" width="128" x="925" y="244"/><text fill="#000000" font-family="sans-serif" font-size="14" lengthAdjust="spacingAndGlyphs" textLength="118" x="930" y="261.9951">NEW DOCUMENT</text><text fill="#000000" font-family="sans-serif" font-size="14" lengthAdjust="spacingAndGlyphs" textLength="86" x="946" y="278.292">REQUESTED</text><rect fill="#FEFECE" filter="url(#f1rz334nkwwqtz)" height="42.5938" rx="12.5" ry="12.5" style="stroke: #A80036; stroke-width: 1.5;" width="91" x="653.5" y="514"/><text fill="#000000" font-family="sans-serif" font-size="14" lengthAdjust="spacingAndGlyphs" textLength="81" x="658.5" y="531.9951">DOCUMENT</text><text fill="#000000" font-family="sans-serif" font-size="14" lengthAdjust="spacingAndGlyphs" textLength="59" x="669.5" y="548.292">OPENED</text><rect fill="#FEFECE" filter="url(#f1rz334nkwwqtz)" height="42.5938" rx="12.5" ry="12.5" style="stroke: #A80036; stroke-width: 1.5;" width="130" x="83" y="124"/><text fill="#000000" font-family="sans-serif" font-size="14" lengthAdjust="spacingAndGlyphs" textLength="120" x="88" y="141.9951">PROFILE UPDATE</text><text fill="#000000" font-family="sans-serif" font-size="14" lengthAdjust="spacingAndGlyphs" textLength="86" x="105" y="158.292">REQUESTED</text><rect fill="#000000" filter="url(#f1rz334nkwwqtz)" height="8" style="stroke: none; stroke-width: 1.0;" width="80" x="290" y="261.5"/><rect fill="#000000" filter="url(#f1rz334nkwwqtz)" height="8" style="stroke: none; stroke-width: 1.0;" width="80" x="275" y="531.5"/><rect fill="#000000" filter="url(#f1rz334nkwwqtz)" height="8" style="stroke: none; stroke-width: 1.0;" width="80" x="802" y="141.5"/><rect fill="#000000" filter="url(#f1rz334nkwwqtz)" height="8" style="stroke: none; stroke-width: 1.0;" width="80" x="739" y="381.5"/><ellipse cx="304" cy="27" fill="#000000" filter="url(#f1rz334nkwwqtz)" rx="10" ry="10" style="stroke: none; stroke-width: 1.0;"/><path d="M6,7 L6,47.2656 A0,0 0 0 0 6,47.2656 L117.284,47.2656 L142.276,123.66 L125.284,47.2656 L226,47.2656 A0,0 0 0 0 226,47.2656 L226,17 L216,7 L6,7 A0,0 0 0 0 6,7 " fill="#FBFB77" filter="url(#f1rz334nkwwqtz)" style="stroke: #A80036; stroke-width: 1.0;"/><path d="M216,7 L216,17 L226,17 L216,7 " fill="#FBFB77" style="stroke: #A80036; stroke-width: 1.0;"/><text fill="#000000" font-family="sans-serif" font-size="13" lengthAdjust="spacingAndGlyphs" textLength="199" x="12" y="24.0669">Can be done even while one or</text><text fill="#000000" font-family="sans-serif" font-size="13" lengthAdjust="spacingAndGlyphs" textLength="187" x="12" y="39.1997">more documents are opened</text><path d="M720,7 L720,47.2656 A0,0 0 0 0 720,47.2656 L838,47.2656 L842,141.327 L846,47.2656 L964,47.2656 A0,0 0 0 0 964,47.2656 L964,17 L954,7 L720,7 A0,0 0 0 0 720,7 " fill="#FBFB77" filter="url(#f1rz334nkwwqtz)" style="stroke: #A80036; stroke-width: 1.0;"/><path d="M954,7 L954,17 L964,17 L954,7 " fill="#FBFB77" style="stroke: #A80036; stroke-width: 1.0;"/><text fill="#000000" font-family="sans-serif" font-size="13" lengthAdjust="spacingAndGlyphs" textLength="208" x="726" y="24.0669">More than one document can be</text><text fill="#000000" font-family="sans-serif" font-size="13" lengthAdjust="spacingAndGlyphs" textLength="223" x="726" y="39.1997">opened with the same mechanism</text><!--MD5=[45a3f3a6d4969990fc7b870ce4fa4b9d]
link *start to na--><path d="M306.04,37.142 C309.991,54.843 318.802,94.325 324.567,120.158 " fill="none" id="*start-&gt;na" style="stroke: #A80036; stroke-width: 1.0;"/><polygon fill="#A80036" points="325.677,125.132,327.6189,115.4765,324.5871,120.2522,319.8113,117.2204,325.677,125.132" style="stroke: #A80036; stroke-width: 1.0;"/><!--MD5=[63e1ac5a7ea2228c7f152557a1527bdb]
link na to fork_authentication--><path d="M330,165.721 C330,191.772 330,237.19 330,255.984 " fill="none" id="na-&gt;fork_authentication" style="stroke: #A80036; stroke-width: 1.0;"/><polygon fill="#A80036" points="330,261.27,334,252.27,330,256.27,326,252.27,330,261.27" style="stroke: #A80036; stroke-width: 1.0;"/><!--MD5=[a92de412e596e76d51c31aa2e7ac9f67]
link fork_authentication to lr--><path d="M328.047,269.656 C320.267,282.232 291.006,329.531 272.55,359.365 " fill="none" id="fork_authentication-&gt;lr" style="stroke: #A80036; stroke-width: 1.0;"/><polygon fill="#A80036" points="269.909,363.633,278.046,358.0842,272.5398,359.3811,271.243,353.8749,269.909,363.633" style="stroke: #A80036; stroke-width: 1.0;"/><text fill="#000000" font-family="sans-serif" font-size="13" lengthAdjust="spacingAndGlyphs" textLength="30" x="299" y="330.0669">login</text><!--MD5=[1dc46afa48c114d529591da2a2f4e76d]
link fork_authentication to nar--><path d="M331.819,269.656 C339.036,282.181 366.1,329.144 383.303,358.997 " fill="none" id="fork_authentication-&gt;nar" style="stroke: #A80036; stroke-width: 1.0;"/><polygon fill="#A80036" points="385.975,363.633,384.9466,353.838,383.4783,359.301,378.0153,357.8327,385.975,363.633" style="stroke: #A80036; stroke-width: 1.0;"/><text fill="#000000" font-family="sans-serif" font-size="13" lengthAdjust="spacingAndGlyphs" textLength="46" x="370" y="330.0669">sign up</text><!--MD5=[8a0f9d9be286c41ec841b7a5d52070aa]
link lr to join_authentication--><path d="M265.065,407.079 C278.035,440.175 302.968,503.7971 311.801,526.3377 " fill="none" id="lr-&gt;join_authentication" style="stroke: #A80036; stroke-width: 1.0;"/><polygon fill="#A80036" points="313.683,531.1396,314.1236,521.3006,311.8587,526.4843,306.675,524.2194,313.683,531.1396" style="stroke: #A80036; stroke-width: 1.0;"/><!--MD5=[33e05752f8ed21119f18e767fd523691]
link nar to join_authentication--><path d="M386.459,407.079 C367.82,440.315 331.916,504.3368 319.418,526.622 " fill="none" id="nar-&gt;join_authentication" style="stroke: #A80036; stroke-width: 1.0;"/><polygon fill="#A80036" points="316.885,531.1396,324.776,525.2462,319.3306,526.7785,317.7983,521.3332,316.885,531.1396" style="stroke: #A80036; stroke-width: 1.0;"/><!--MD5=[da7f37b0f594538e5029c86a98817efc]
link join_authentication to a--><path d="M327.729,531.4912 C370.889,520.458 509,478.0031 509,386.5 C509,144.5 509,144.5 509,144.5 C509,112.722 509,76.068 509,52.493 " fill="none" id="join_authentication-&gt;a" style="stroke: #A80036; stroke-width: 1.0;"/><polygon fill="#A80036" points="509,47.377,505,56.377,509,52.377,513,56.377,509,47.377" style="stroke: #A80036; stroke-width: 1.0;"/><text fill="#000000" font-family="sans-serif" font-size="13" lengthAdjust="spacingAndGlyphs" textLength="72" x="510" y="270.0669">documents</text><!--MD5=[98ddcbdea59ac22614ebceae8225127b]
link join_authentication to na--><path d="M309.335,531.2955 C282.202,515.4893 167.796,443.397 191,364 C214.166,284.732 276.01,206.879 308.841,169.481 " fill="none" id="join_authentication-&gt;na" style="stroke: #A80036; stroke-width: 1.0;"/><polygon fill="#A80036" points="312.311,165.556,303.3531,169.6495,308.9993,169.302,309.3468,174.9482,312.311,165.556" style="stroke: #A80036; stroke-width: 1.0;"/><text fill="#000000" font-family="sans-serif" font-size="13" lengthAdjust="spacingAndGlyphs" textLength="31" x="210" y="330.0669">error</text><!--MD5=[67cc2337d795b3784055e98db5371612]
link a to na--><path d="M479.442,47.238 C447.606,67.958 397.043,100.866 363.69,122.573 " fill="none" id="a-&gt;na" style="stroke: #A80036; stroke-width: 1.0;"/><polygon fill="#A80036" points="359.305,125.427,369.0302,123.8715,363.496,122.7002,364.6673,117.1659,359.305,125.427" style="stroke: #A80036; stroke-width: 1.0;"/><text fill="#000000" font-family="sans-serif" font-size="13" lengthAdjust="spacingAndGlyphs" textLength="40" x="432" y="90.0669">logout</text><!--MD5=[0ec9e5916b27156c8e17880b68f691ab]
link a to pur--><path d="M449.792,47.107 C385.818,67.753 284.01,100.608 216.596,122.363 " fill="none" id="a-&gt;pur" style="stroke: #A80036; stroke-width: 1.0;"/><polygon fill="#A80036" points="211.803,123.91,221.5965,124.9525,216.5613,122.3744,219.1395,117.3392,211.803,123.91" style="stroke: #A80036; stroke-width: 1.0;"/><text fill="#000000" font-family="sans-serif" font-size="13" lengthAdjust="spacingAndGlyphs" textLength="40" x="352" y="90.0669">profile</text><!--MD5=[d86bc1ab8263415e202c59f08e506a9b]
link pur to a--><path d="M155.886,123.958 C162.943,108.474 174.841,88.077 192,77 C212.413,63.822 352.322,45.839 439.312,35.726 " fill="none" id="pur-&gt;a" style="stroke: #A80036; stroke-width: 1.0;"/><polygon fill="#A80036" points="444.446,35.132,435.0452,32.1951,439.4793,35.7078,435.9665,40.1419,444.446,35.132" style="stroke: #A80036; stroke-width: 1.0;"/><text fill="#000000" font-family="sans-serif" font-size="13" lengthAdjust="spacingAndGlyphs" textLength="105" x="193" y="90.0669">profile_ok / error</text><!--MD5=[ca97d9a72071ffffe36dd445b912e90a]
link a to fork_document--><path d="M573.555,30.622 C627.682,35.022 705.728,46.624 767,77 C797.458,92.1 824.837,123.095 836.302,137.21 " fill="none" id="a-&gt;fork_document" style="stroke: #A80036; stroke-width: 1.0;"/><polygon fill="#A80036" points="839.562,141.302,837.0832,131.7702,836.4467,137.3911,830.8258,136.7546,839.562,141.302" style="stroke: #A80036; stroke-width: 1.0;"/><!--MD5=[8dc1a50bd96980e21c4f6b3fd0923000]
link fork_document to dr--><path d="M842,149.656 C842,162.129 842,208.758 842,238.627 " fill="none" id="fork_document-&gt;dr" style="stroke: #A80036; stroke-width: 1.0;"/><polygon fill="#A80036" points="842,243.633,846,234.633,842,238.633,838,234.633,842,243.633" style="stroke: #A80036; stroke-width: 1.0;"/><text fill="#000000" font-family="sans-serif" font-size="13" lengthAdjust="spacingAndGlyphs" textLength="32" x="843" y="210.0669">open</text><!--MD5=[c49c71149905aef79e6a1295083a4fd0]
link fork_document to ndr--><path d="M845.932,149.656 C861.835,162.422 922.312,210.968 959.356,240.704 " fill="none" id="fork_document-&gt;ndr" style="stroke: #A80036; stroke-width: 1.0;"/><polygon fill="#A80036" points="963.309,243.877,958.7932,235.1244,959.4094,240.7476,953.7862,241.3638,963.309,243.877" style="stroke: #A80036; stroke-width: 1.0;"/><text fill="#000000" font-family="sans-serif" font-size="13" lengthAdjust="spacingAndGlyphs" textLength="41" x="925" y="210.0669">create</text><!--MD5=[40b6a8924f92b7eb1fd7507e11e5b35b]
link dr to join_document--><path d="M831.026,287.054 C816.841,313.623 792.819,358.616 783.183,376.665 " fill="none" id="dr-&gt;join_document" style="stroke: #A80036; stroke-width: 1.0;"/><polygon fill="#A80036" points="780.681,381.351,788.4489,375.2962,783.0362,376.9405,781.392,371.5278,780.681,381.351" style="stroke: #A80036; stroke-width: 1.0;"/><!--MD5=[f37441fc5ddab51b03730933d5af3217]
link ndr to join_document--><path d="M952.421,287.054 C903.099,314.768 818.101,362.529 789.063,378.845 " fill="none" id="ndr-&gt;join_document" style="stroke: #A80036; stroke-width: 1.0;"/><polygon fill="#A80036" points="784.603,381.351,794.4086,380.4292,788.9619,378.9016,790.4896,373.4549,784.603,381.351" style="stroke: #A80036; stroke-width: 1.0;"/><!--MD5=[d34e2c97c1ba5adf75a7f31cbc08a960]
link join_document to do--><path d="M777.329,389.591 C769.169,404.687 733.082,471.4476 712.858,508.8619 " fill="none" id="join_document-&gt;do" style="stroke: #A80036; stroke-width: 1.0;"/><polygon fill="#A80036" points="710.234,513.7166,718.0324,507.7013,712.6116,509.3181,710.9948,503.8972,710.234,513.7166" style="stroke: #A80036; stroke-width: 1.0;"/><text fill="#000000" font-family="sans-serif" font-size="13" lengthAdjust="spacingAndGlyphs" textLength="26" x="785.5" y="450.0669">text</text><text fill="#000000" font-family="sans-serif" font-size="13" lengthAdjust="spacingAndGlyphs" textLength="93" x="752" y="465.1997">+ sequence of</text><text fill="#000000" font-family="sans-serif" font-size="13" lengthAdjust="spacingAndGlyphs" textLength="40" x="778.5" y="480.3325">cursor</text><!--MD5=[338bdab100801a0669b42d1508ce69d8]
link join_document to a--><path d="M779.01,381.198 C778.906,354.276 774.653,169.475 679,77 C652.269,51.158 612.809,38.799 578.634,32.95 " fill="none" id="join_document-&gt;a" style="stroke: #A80036; stroke-width: 1.0;"/><polygon fill="#A80036" points="573.632,32.133,581.8697,37.5311,578.5666,32.9388,583.159,29.6357,573.632,32.133" style="stroke: #A80036; stroke-width: 1.0;"/><text fill="#000000" font-family="sans-serif" font-size="13" lengthAdjust="spacingAndGlyphs" textLength="31" x="756" y="210.0669">error</text><!--MD5=[9eaac24ee9d9c8dc97de255208cbacac]
link do to a--><path d="M688.099,513.5682 C674.496,485.4578 653,433.587 653,386.5 C653,144.5 653,144.5 653,144.5 C653,98.612 608.257,67.683 568.652,49.295 " fill="none" id="do-&gt;a" style="stroke: #A80036; stroke-width: 1.0;"/><polygon fill="#A80036" points="563.851,47.114,570.3914,54.4777,568.4035,49.1816,573.6995,47.1937,563.851,47.114" style="stroke: #A80036; stroke-width: 1.0;"/><text fill="#000000" font-family="sans-serif" font-size="13" lengthAdjust="spacingAndGlyphs" textLength="33" x="654" y="270.0669">close</text><!--MD5=[9efda2c749fc1407487e2f513ab4f948]
link do to do--><path d="M744.516,521.7469 C763.45,520.7985 779.5,525.3828 779.5,535.5 C779.5,544.6687 766.318,549.2933 749.754,549.3739 " fill="none" id="do-&gt;do" style="stroke: #A80036; stroke-width: 1.0;"/><polygon fill="#A80036" points="744.516,549.2531,753.421,553.4603,749.5147,549.3688,753.6062,545.4624,744.516,549.2531" style="stroke: #A80036; stroke-width: 1.0;"/><text fill="#000000" font-family="sans-serif" font-size="13" lengthAdjust="spacingAndGlyphs" textLength="136" x="785.5" y="540.0669">insert / erase / cursor</text><!--MD5=[6f76bb057b70021d02dec4ab7044284c]
@startuml
hide empty description

state "NOT AUTHENTICATED" as na
state "LOGIN\nREQUESTED" as lr
state "NEW ACCOUNT\nREQUESTED" as nar
state "AUTHENTICATED" as a
state "DOCUMENT\nREQUESTED" as dr
state "NEW DOCUMENT\nREQUESTED" as ndr
state "DOCUMENT\nOPENED" as do
state "PROFILE UPDATE\nREQUESTED" as pur
state fork_authentication <<fork>>
state join_authentication <<join>>
state fork_document <<fork>>
state join_document <<join>>

[*] - -> na

na - -> fork_authentication
fork_authentication - -> lr : login
fork_authentication - -> nar : sign up
lr - -> join_authentication
nar - -> join_authentication
join_authentication - -> a : documents
join_authentication - -> na : error

a - -> na : logout

a -> pur : profile
pur - -> a : profile_ok / error

a - -> fork_document
fork_document - -> dr : open
fork_document - -> ndr : create
dr - -> join_document
ndr - -> join_document
join_document - -> do : text\n+ sequence of\ncursor
join_document - -> a : error
do - -> a : close
do - -> do : insert / erase / cursor

note top of pur : Can be done even while one or\nmore documents are opened
note top of fork_document : More than one document can be\nopened with the same mechanism
@enduml

PlantUML version 1.2020.16beta7(Unknown compile time)
(GPL source distribution)
Java Runtime: Java(TM) SE Runtime Environment
JVM: Java HotSpot(TM) 64-Bit Server VM
Default Encoding: UTF-8
Language: en
Country: US
--></g></svg>